# xmcd
#
# Track frame offsets:
#	150
#	27533
#	49689
#	67908
#	80110
#	107543
#	130026
#	152700
#	176876
#	202851
#	222211
#	246488
#	268484
#	288756
#	311287
#	332994
#
# Disc length: 4750 seconds
#
# Revision: 0
# Processed by: cddbd v1.4PL0 Copyright (c) Steve Scherf et al.
# Submitted via: EasyCDDAExtractor 4.6.9.1
#
DISCID=ec128c10
DTITLE=Teddy Pendergrass - The Ultimate Collection [CD2]
DYEAR=1900
DGENRE=
TTITLE0=Joy
TTITLE1=Glad To Be Alive 
TTITLE2=Don't Keep Wasting My Time 
TTITLE3=Workin' It Back 
TTITLE4=Love Is The Power 
TTITLE5=I Find Everything In You 
TTITLE6=The Power Of One 
TTITLE7=Make It With You
TTITLE8=Turn Off The Lights 
TTITLE9=Give It To Me 
TTITLE10=No One Like You 
TTITLE11=You And I 
TTITLE12=Let Me Be Closer 
TTITLE13=Tender 
TTITLE14=Through The Falling Rain (Love Story) 
TTITLE15=Truly Blessed 
EXTD=
EXTT0=
EXTT1=
EXTT2=
EXTT3=
EXTT4=
EXTT5=
EXTT6=
EXTT7=
EXTT8=
EXTT9=
EXTT10=
EXTT11=
EXTT12=
EXTT13=
EXTT14=
EXTT15=
PLAYORDER=
